<svg width="272" height="47" viewBox="0 0 272 47" fill="none" xmlns="http://www.w3.org/2000/svg">
<path d="M3.64573 0.430534V2.43969C4.57503 0.861069 5.71879 0.0717557 7.64888 0.0717557C9.50749 0.0717557 10.6512 0.789313 11.3661 2.43969C12.2954 0.789313 13.7251 0.0717557 15.5837 0.0717557C17.7283 0.0717557 19.8013 1.36336 19.8013 4.95115V14.2076H16.0126V5.45343C16.0126 4.16183 15.4407 3.22901 14.011 3.22901C12.9388 3.22901 11.795 3.65954 11.795 5.95573V14.1359H8.07779V6.02748C8.07779 4.16183 7.50591 3.30076 6.07622 3.30076C4.64652 3.30076 3.86018 3.94656 3.86018 5.88397V14.2076H0.0714849V0.430534H3.64573ZM26.5924 0.358779V8.61069C26.5924 10.6198 27.1643 11.4092 28.7369 11.4092C30.524 11.4092 31.5248 10.4763 31.5248 7.82137V0.358779H35.3135V14.1359H31.6678V12.1985C30.7385 13.4901 29.5947 14.4229 27.4502 14.4229C24.3049 14.4229 22.7322 12.629 22.7322 9.18473V0.358779H26.5924ZM44.1062 0C47.8234 0 49.8965 1.43511 50.1824 4.59237H46.4652C46.3222 3.22901 45.4644 2.79847 44.1777 2.79847C42.462 2.79847 42.0331 3.44427 42.0331 3.94656C42.0331 4.59237 42.462 4.87939 44.0347 5.23817L46.3937 5.81221C48.8242 6.38626 50.6113 7.53435 50.6113 9.97405C50.6113 12.629 48.6812 14.6382 44.3921 14.6382C40.7464 14.6382 38.03 13.2748 38.03 9.75878H41.8187C41.9616 11.0504 42.462 11.7679 44.6781 11.7679C46.0363 11.7679 46.8941 11.3374 46.8941 10.5481C46.8941 9.83053 46.5367 9.61527 45.0355 9.18473L42.605 8.61069C39.6741 7.89313 38.3159 7.03206 38.3159 4.66412C38.3159 2.51145 40.103 0 44.1062 0V0ZM58.6176 0C62.7637 0 65.3372 2.51145 65.1227 8.25191H55.8297C55.8297 10.1893 56.8305 11.5527 58.8321 11.5527C59.7614 11.5527 60.8336 11.1939 61.2625 10.1176H65.1227C64.9083 12.4855 62.6922 14.5664 58.8321 14.5664C55.6152 14.5664 52.1125 12.7008 52.1125 7.31908C52.1125 2.79847 54.8289 0 58.6176 0ZM61.334 5.88397C61.2626 4.16183 60.3332 3.0855 58.6891 3.0855C57.1164 3.0855 56.1871 4.16183 55.9727 5.88397H61.334ZM71.1989 0.358779V8.61069C71.1989 10.6198 71.7708 11.4092 73.3435 11.4092C75.1306 11.4092 76.1314 10.4763 76.1314 7.82137V0.358779H79.9201V14.1359H76.2744V12.1985C75.3451 13.4901 74.2013 14.4229 72.0568 14.4229C68.9114 14.4229 67.3388 12.629 67.3388 9.18473V0.358779H71.1989ZM86.9256 0.430534V2.43969C87.8549 0.861069 88.9272 0.143511 90.8573 0.143511C92.7159 0.143511 93.8597 0.861069 94.5745 2.51145C95.5038 0.861069 96.9335 0.143511 98.7921 0.143511C100.937 0.143511 103.01 1.43511 103.01 5.0229V14.2794H99.221V5.45343C99.221 4.16183 98.6491 3.22901 97.2194 3.22901C96.1472 3.22901 95.0034 3.65954 95.0034 5.95573V14.1359H91.2862V6.02748C91.2862 4.16183 90.7143 3.30076 89.2846 3.30076C87.8549 3.30076 87.0686 3.94656 87.0686 5.88397V14.2076H83.2799V0.430534H86.9256ZM147.616 0.358779L150.404 10.4046L153.264 0.358779H157.195L152.263 14.1359H148.331L143.399 0.358779H147.616ZM164.344 0.0717557C166.059 0.0717557 167.489 0.932825 168.204 2.43969V0.430534H171.85V14.1359H168.204V12.1985C167.346 13.5618 166.202 14.5664 164.058 14.5664C161.127 14.5664 158.339 11.9832 158.339 7.60611C158.339 2.79847 160.77 0.0717557 164.344 0.0717557ZM165.13 11.4092C166.774 11.4092 168.132 10.2611 168.132 7.46259C168.132 4.80763 166.989 3.30076 165.13 3.30076C163.343 3.30076 162.199 4.66412 162.199 7.31908C162.199 10.3328 163.486 11.4092 165.13 11.4092ZM178.712 0.430534V2.43969C179.784 0.861069 181.071 0.0717557 182.787 0.0717557C185.789 0.0717557 187.648 1.57863 187.648 4.87939V14.2076H183.859V5.81221C183.859 3.87481 183.073 3.15725 181.572 3.15725C180.213 3.15725 178.855 3.7313 178.855 6.74504V14.1359H175.138V0.430534H178.712ZM3.71721 22.8183V29.4198C4.64652 28.0565 5.86176 27.2672 7.64888 27.2672C11.0087 27.2672 13.4392 29.8504 13.4392 34.2992C13.4392 39.2504 10.8657 41.6901 7.72037 41.6901C5.86176 41.6901 4.78949 41.116 3.64573 39.6092V41.3313H0V22.8183H3.71721ZM6.71958 38.6763C8.29225 38.6763 9.57897 37.4565 9.57897 34.7298C9.57897 31.7878 8.57819 30.5679 6.64809 30.5679C4.64652 30.5679 3.71721 32.0748 3.71721 34.7298C3.57424 37.1695 4.78949 38.6763 6.71958 38.6763ZM22.2318 27.1954C26.7353 27.1954 29.3088 30.0656 29.3088 34.5863C29.3088 38.8198 26.9498 41.9053 22.2318 41.9053C17.7997 41.9053 15.1548 38.8916 15.1548 34.5145C15.1548 30.2809 17.6568 27.1954 22.2318 27.1954ZM22.2318 38.8198C24.1619 38.8198 25.4486 37.313 25.4486 34.658C25.4486 31.7878 24.1619 30.4244 22.2318 30.4244C20.7306 30.4244 19.015 31.142 19.015 34.658C19.015 37.3847 20.2302 38.8198 22.2318 38.8198ZM35.2421 22.6748V26.0473H31.4534V22.6748H35.2421ZM35.2421 27.626V41.4031H31.4534V27.626H35.2421ZM42.6765 27.6977V42.8382C42.6765 44.6321 42.6765 47 38.6018 47H37.2436V44.058C37.4581 44.058 37.744 44.1298 37.9585 44.1298C38.5304 44.1298 38.9593 43.9145 38.9593 42.9099V27.6977H42.6765ZM42.6765 22.6748V26.0473H38.9593V22.6748H42.6765ZM49.6105 27.6977V29.7069C50.5398 28.1282 51.6121 27.4107 53.5422 27.4107C55.4008 27.4107 56.5445 28.1282 57.2594 29.7786C58.1887 28.1282 59.6184 27.4107 61.477 27.4107C63.6216 27.4107 65.6946 28.7023 65.6946 32.2901V41.5466H61.9059V32.7206C61.9059 31.429 61.334 30.4962 59.9043 30.4962C58.8321 30.4962 57.6883 30.9267 57.6883 33.2229V41.4031H53.9711V33.2947C53.9711 31.429 53.3992 30.5679 51.9695 30.5679C50.5398 30.5679 49.7535 31.2137 49.7535 33.1511V41.4748H45.9648V27.6977H49.6105ZM73.9154 27.3389C75.631 27.3389 77.0607 28.2 77.7756 29.7069V27.6977H81.4213V41.4031H77.7756V39.4656C76.9177 40.829 75.774 41.8336 73.6294 41.8336C70.6986 41.8336 67.9106 39.2504 67.9106 34.8733C67.9821 30.0656 70.4126 27.3389 73.9154 27.3389ZM74.7017 38.6763C76.3459 38.6763 77.7041 37.5282 77.7041 34.7298C77.7041 32.0748 76.5603 30.5679 74.7017 30.5679C72.9146 30.5679 71.7708 31.9313 71.7708 34.5863C71.7708 37.6 73.0576 38.6763 74.7017 38.6763ZM88.1409 27.6977V29.7069C89.2131 28.1282 90.4999 27.3389 92.2155 27.3389C95.2179 27.3389 97.0765 28.8458 97.0765 32.1466V41.4748H93.2878V33.0794C93.2878 31.142 92.5014 30.4244 91.0003 30.4244C89.6421 30.4244 88.2838 30.9985 88.2838 34.0122V41.4031H84.5666V27.6977H88.1409ZM105.583 27.2672C109.3 27.2672 111.373 28.7023 111.659 31.8595H107.942C107.799 30.4962 106.941 30.0656 105.655 30.0656C103.939 30.0656 103.51 30.7115 103.51 31.2137C103.51 31.8595 103.939 32.1466 105.512 32.5053L107.871 33.0794C110.301 33.6534 112.088 34.8015 112.088 37.2412C112.088 39.8962 110.158 41.9053 105.869 41.9053C102.223 41.9053 99.507 40.542 99.507 37.026H103.296C103.439 38.3176 103.939 39.0351 106.155 39.0351C107.513 39.0351 108.371 38.6046 108.371 37.8153C108.371 37.0977 108.014 36.8824 106.512 36.4519L104.153 35.8779C101.223 35.1603 99.8644 34.2992 99.8644 31.9313C99.8644 29.7786 101.58 27.2672 105.583 27.2672ZM148.403 22.8183V29.4198C149.332 28.0565 150.547 27.2672 152.334 27.2672C155.694 27.2672 158.125 29.8504 158.125 34.2992C158.125 39.2504 155.551 41.6901 152.406 41.6901C150.547 41.6901 149.475 41.116 148.331 39.6092V41.3313H144.685V22.8183H148.403ZM151.334 38.6763C152.906 38.6763 154.193 37.4565 154.193 34.7298C154.193 31.7878 153.192 30.5679 151.262 30.5679C149.26 30.5679 148.331 32.0748 148.331 34.7298C148.26 37.1695 149.403 38.6763 151.334 38.6763ZM166.417 27.2672C170.563 27.2672 173.136 29.7786 172.922 35.5191H163.629C163.629 37.4565 164.63 38.8198 166.631 38.8198C167.561 38.8198 168.633 38.4611 169.062 37.3847H172.922C172.707 39.7527 170.491 41.8336 166.631 41.8336C163.414 41.8336 159.912 39.9679 159.912 34.5863C159.912 30.0656 162.628 27.2672 166.417 27.2672ZM169.133 33.1511C169.062 31.429 168.132 30.3527 166.488 30.3527C164.916 30.3527 163.986 31.429 163.772 33.1511H169.133ZM178.927 27.626V35.8779C178.927 37.887 179.499 38.6763 181.071 38.6763C182.858 38.6763 183.859 37.7435 183.859 35.0886V27.626H187.648V41.4031H184.002V39.4656C183.073 40.7573 181.929 41.6901 179.784 41.6901C176.639 41.6901 175.066 39.8962 175.066 36.4519V27.626H178.927ZM194.367 27.6977V29.7069C195.44 28.1282 196.726 27.3389 198.442 27.3389C201.444 27.3389 203.303 28.8458 203.303 32.1466V41.4748H199.514V33.0794C199.514 31.142 198.728 30.4244 197.227 30.4244C195.869 30.4244 194.51 30.9985 194.51 34.0122V41.4031H190.793V27.6977H194.367ZM210.452 22.6748V26.0473H206.663V22.6748H210.452ZM210.452 27.626V41.4031H206.663V27.626H210.452ZM217.314 27.6977V29.7069C218.386 28.1282 219.673 27.3389 221.389 27.3389C224.391 27.3389 226.25 28.8458 226.25 32.1466V41.4748H222.461V33.0794C222.461 31.142 221.675 30.4244 220.173 30.4244C218.815 30.4244 217.457 30.9985 217.457 34.0122V41.4031H213.74V27.6977H217.314ZM234.327 27.3389C235.9 27.3389 237.258 27.913 238.188 29.6351V27.626H241.833V40.6855C241.833 44.9191 239.975 46.9282 234.971 47C232.04 47 229.038 45.9954 228.752 42.8382H232.826C233.041 43.6275 233.47 44.1298 235.185 44.1298C237.258 44.1298 238.116 43.1969 238.116 40.1832V39.2504C237.544 40.255 236.758 41.4031 234.256 41.4031C230.753 41.4031 228.466 38.8916 228.466 34.5145C228.466 30.0656 230.896 27.3389 234.327 27.3389ZM235.257 38.3176C236.901 38.3176 238.188 37.2412 238.188 34.4427C238.188 31.7878 236.901 30.5679 235.257 30.5679C233.398 30.5679 232.326 31.8595 232.326 34.5145C232.326 36.6672 233.255 38.3176 235.257 38.3176ZM250.555 27.2672C254.701 27.2672 257.274 29.7786 257.06 35.5191H247.767C247.767 37.4565 248.767 38.8198 250.769 38.8198C251.698 38.8198 252.771 38.4611 253.199 37.3847H257.06C256.845 39.7527 254.629 41.8336 250.769 41.8336C247.552 41.8336 244.049 39.9679 244.049 34.5863C244.049 30.0656 246.766 27.2672 250.555 27.2672ZM253.199 33.1511C253.128 31.429 252.199 30.3527 250.555 30.3527C248.982 30.3527 248.053 31.429 247.838 33.1511H253.199ZM263.064 27.6977V29.7069C264.137 28.1282 265.423 27.3389 267.139 27.3389C270.141 27.3389 272 28.8458 272 32.1466V41.4748H268.211V33.0794C268.211 31.142 267.425 30.4244 265.924 30.4244C264.566 30.4244 263.207 30.9985 263.207 34.0122V41.4031H259.49V27.6977H263.064Z" fill="black"/>
</svg>
