<svg width="58" height="58" viewBox="0 0 58 58" fill="none" xmlns="http://www.w3.org/2000/svg">
<path d="M50.1842 0H7.81567C3.49928 0 0 3.49911 0 7.81562V50.1841C0 54.5006 3.49914 57.9997 7.81567 57.9997H28.7116L28.7472 37.2738H23.3626C22.6628 37.2738 22.0949 36.7079 22.0922 36.0082L22.0663 29.3273C22.0637 28.6237 22.6333 28.0519 23.3369 28.0519H28.7118V21.5966C28.7118 14.1051 33.2871 10.026 39.97 10.026H45.4538C46.1554 10.026 46.7243 10.5948 46.7243 11.2966V16.9299C46.7243 17.6314 46.1558 18.2 45.4545 18.2004L42.0891 18.202C38.4548 18.202 37.751 19.929 37.751 22.4635V28.0521H45.737C46.4979 28.0521 47.0883 28.7165 46.9986 29.4722L46.2068 36.153C46.131 36.7923 45.5888 37.274 44.9451 37.274H37.7867L37.751 58H50.1845C54.5009 58 58 54.5009 58 50.1845V7.81562C57.9999 3.49911 54.5007 0 50.1842 0Z" fill="white"/>
</svg>
