<svg width="23" height="23" viewBox="0 0 23 23" fill="none" xmlns="http://www.w3.org/2000/svg">
<g opacity="0.8">
<path d="M11.5 0C5.1589 0 0 5.15897 0 11.5001C0 17.8412 5.1589 23 11.5 23C17.8411 23 23 17.8412 23 11.5001C23 5.15897 17.8411 0 11.5 0ZM11.5 20.9091C6.31176 20.9091 2.09091 16.6882 2.09091 11.5001C2.09091 6.3119 6.31176 2.09091 11.5 2.09091C16.6882 2.09091 20.9091 6.3119 20.9091 11.5001C20.9091 16.6882 16.6882 20.9091 11.5 20.9091Z" fill="#4F4F4F"/>
<path d="M1.39366 0C0.625182 0 -7.65714e-08 0.6256 -7.65714e-08 1.39457C-7.65714e-08 2.16284 0.625182 2.78788 1.39366 2.78788C2.16214 2.78788 2.78732 2.16284 2.78732 1.39457C2.78732 0.6256 2.16214 0 1.39366 0Z" transform="translate(10.1055 4.87891)" fill="#4F4F4F"/>
<path d="M1.04545 0C0.468085 0 0 0.468085 0 1.04545V7.31818C0 7.89555 0.468085 8.36364 1.04545 8.36364C1.62282 8.36364 2.09091 7.89555 2.09091 7.31818V1.04545C2.09091 0.468085 1.62282 0 1.04545 0Z" transform="translate(10.4551 9.75781)" fill="#4F4F4F"/>
</g>
</svg>
