<svg width="44" height="46" viewBox="0 0 44 46" fill="none" xmlns="http://www.w3.org/2000/svg">
<rect width="44" height="45.02" rx="10" fill="#FFD952"/>
<rect x="1" y="1" width="35.3585" height="36.5694" rx="6" transform="translate(3.32031 3.35352)" stroke="black" stroke-width="2"/>
<path d="M8.17266 24.432V6.048H13.5487C14.5567 6.048 15.4367 6.232 16.1887 6.6C16.9567 6.952 17.7007 7.528 18.4207 8.328C19.0447 9.048 19.4927 9.744 19.7647 10.416C20.0527 11.088 20.1967 11.84 20.1967 12.672C20.1967 13.632 20.0527 14.424 19.7647 15.048C19.4927 15.672 19.1247 16.184 18.6607 16.584C19.2047 17.112 19.6047 17.68 19.8607 18.288C20.1167 18.88 20.2447 19.608 20.2447 20.472C20.2447 21.32 20.1167 22.072 19.8607 22.728C19.6047 23.368 19.2367 23.904 18.7567 24.336C18.2927 24.784 17.7327 25.12 17.0767 25.344C16.4207 25.568 15.6847 25.68 14.8687 25.68H9.56466L8.17266 24.432ZM12.8047 21.096H13.5487C14.2367 21.096 14.7807 20.936 15.1807 20.616C15.5807 20.28 15.7807 19.792 15.7807 19.152C15.7807 18.72 15.7167 18.448 15.5887 18.336C15.4767 18.224 15.2367 18.168 14.8687 18.168H12.8047V21.096ZM12.8047 13.584H13.5487C14.1727 13.584 14.6927 13.408 15.1087 13.056C15.5247 12.688 15.7327 12.12 15.7327 11.352C15.7327 11.096 15.6767 10.92 15.5647 10.824C15.4687 10.728 15.2367 10.68 14.8687 10.68H12.8047V13.584ZM11.1007 14.016V9H13.5487C14.3807 9 15.0287 9.2 15.4927 9.6C15.9567 9.984 16.1887 10.568 16.1887 11.352C16.1887 12.28 15.9407 12.96 15.4447 13.392C14.9487 13.808 14.3167 14.016 13.5487 14.016H11.1007ZM11.1007 21.528V16.488H13.5487C14.3167 16.488 14.9487 16.712 15.4447 17.16C15.9567 17.592 16.2127 18.256 16.2127 19.152C16.2127 19.936 15.9727 20.528 15.4927 20.928C15.0287 21.328 14.3807 21.528 13.5487 21.528H11.1007ZM10.5967 14.52H13.5487C14.4607 14.52 15.2047 14.256 15.7807 13.728C16.3567 13.2 16.6447 12.408 16.6447 11.352C16.6447 10.472 16.3807 9.776 15.8527 9.264C15.3247 8.752 14.5567 8.496 13.5487 8.496H10.5967V14.52ZM16.6927 19.152C16.6927 18.096 16.3967 17.312 15.8047 16.8C15.2127 16.288 14.4607 16.032 13.5487 16.032H10.5967V22.032H13.5487C14.5567 22.032 15.3327 21.776 15.8767 21.264C16.4207 20.736 16.6927 20.032 16.6927 19.152ZM10.1167 15.024V7.992H13.5487C14.7007 7.992 15.5807 8.304 16.1887 8.928C16.8127 9.536 17.1247 10.344 17.1247 11.352C17.1247 11.864 17.0447 12.344 16.8847 12.792C16.7407 13.24 16.5167 13.632 16.2127 13.968C15.9087 14.288 15.5327 14.544 15.0847 14.736C14.6367 14.928 14.1247 15.024 13.5487 15.024H10.1167ZM13.5487 15.504C14.1247 15.504 14.6367 15.6 15.0847 15.792C15.5327 15.968 15.9087 16.224 16.2127 16.56C16.5167 16.88 16.7487 17.264 16.9087 17.712C17.0687 18.16 17.1487 18.64 17.1487 19.152C17.1487 20.16 16.8367 20.976 16.2127 21.6C15.5887 22.208 14.7007 22.512 13.5487 22.512H10.1167V15.504H13.5487ZM17.6287 19.152C17.6287 18.128 17.3807 17.28 16.8847 16.608C16.4047 15.92 15.7567 15.472 14.9407 15.264C15.7567 15.04 16.3967 14.592 16.8607 13.92C17.3407 13.232 17.5807 12.376 17.5807 11.352C17.5807 10.184 17.2207 9.256 16.5007 8.568C15.7807 7.864 14.7967 7.512 13.5487 7.512H9.58866V22.992H13.5487C14.7967 22.992 15.7887 22.648 16.5247 21.96C17.2607 21.272 17.6287 20.336 17.6287 19.152ZM9.10866 23.52V7.008H13.5487C14.9407 7.008 16.0287 7.384 16.8127 8.136C17.6127 8.888 18.0127 9.96 18.0127 11.352C18.0127 12.264 17.8607 13.04 17.5567 13.68C17.2687 14.32 16.7407 14.848 15.9727 15.264C16.7407 15.68 17.2767 16.208 17.5807 16.848C17.9007 17.488 18.0607 18.256 18.0607 19.152C18.0607 20.528 17.6527 21.6 16.8367 22.368C16.0367 23.136 14.9407 23.52 13.5487 23.52H9.10866ZM18.5407 19.152C18.5407 18.128 18.3727 17.32 18.0367 16.728C17.7007 16.12 17.2607 15.632 16.7167 15.264C17.2607 14.896 17.6927 14.408 18.0127 13.8C18.3487 13.192 18.5167 12.376 18.5167 11.352C18.5167 9.768 18.0687 8.56 17.1727 7.728C16.2767 6.896 15.0687 6.48 13.5487 6.48H8.62866V24H13.5487C15.0687 24 16.2767 23.592 17.1727 22.776C18.0847 21.944 18.5407 20.736 18.5407 19.152Z" transform="translate(8 7)" fill="black"/>
</svg>
