<svg width="19" height="29" viewBox="0 0 19 29" fill="none" xmlns="http://www.w3.org/2000/svg">
<path opacity="0.5" d="M18.5511 7.21782C18.453 6.83094 18.2536 6.41871 18.1061 6.05779C16.3413 1.59822 12.4852 0 9.37166 0C5.20356 0 0.612893 2.93875 -7.82758e-08 8.9962V10.2338C-7.82758e-08 10.2854 0.0169285 10.7494 0.0409749 10.9814C0.384549 13.8683 2.55096 16.9363 4.16893 19.8232C5.90963 22.9161 7.71586 25.9587 9.50535 29C10.6088 27.0153 11.7083 25.0045 12.7866 23.0712C13.0804 22.5038 13.4216 21.9368 13.7158 21.3952C13.9119 21.0346 14.2865 20.6741 14.4576 20.3386C16.1982 16.9876 19 13.6108 19 10.2853V8.9192C19.0001 8.55869 18.5751 7.29556 18.5511 7.21782ZM9.44796 13.4304C8.22275 13.4304 6.88168 12.7862 6.21973 11.0073C6.12111 10.7241 6.12906 10.1566 6.12906 10.1046V9.30548C6.12906 7.0376 7.96043 6.00628 9.55364 6.00628C11.5151 6.00628 13.032 7.65628 13.032 9.71865C13.032 11.781 11.4094 13.4304 9.44796 13.4304Z" fill="black"/>
</svg>
