<svg width="21" height="21" viewBox="0 0 21 21" fill="none" xmlns="http://www.w3.org/2000/svg">
<path d="M0 9.25631H9.25592V-3.09184e-08H0V9.25631ZM1.85104 1.8514H7.40468V7.39082H1.85104V1.8514Z" transform="translate(0 11.1074)" fill="#4F4F4F"/>
<path d="M1.85114 0H0V1.85145H1.85114V0Z" transform="translate(3.70312 14.8105)" fill="#4F4F4F"/>
<path d="M1.8516 0H0V1.85125H1.8516V0Z" transform="translate(14.8086 18.5127)" fill="#4F4F4F"/>
<path d="M1.85155 0H0V1.85125H1.85155V0Z" transform="translate(18.5117 18.5127)" fill="#4F4F4F"/>
<path d="M7.40483 1.8514H5.55379V-3.09184e-08H-3.09175e-08V9.25631H1.85135V3.7025H3.70224V5.55396H9.25603V-3.09184e-08H7.40483V1.8514Z" transform="translate(11.1074 11.1074)" fill="#4F4F4F"/>
<path d="M0 9.25641H9.25592V0H0V9.25641ZM1.85104 1.8511H7.40468V7.40491H1.85104V1.8511Z" fill="#4F4F4F"/>
<path d="M1.85114 0H0V1.85135H1.85114V0Z" transform="translate(3.70312 3.70312)" fill="#4F4F4F"/>
<path d="M-3.09175e-08 0V9.25641H9.25618V0H-3.09175e-08ZM7.40483 7.40491H1.85135V1.8511H7.40483V7.40491Z" transform="translate(11.1074)" fill="#4F4F4F"/>
<path d="M1.8516 0H0V1.85135H1.8516V0Z" transform="translate(14.8086 3.70312)" fill="#4F4F4F"/>
</svg>
